<?xml version="1.0" encoding="utf-8"?>
<!-- Generator: Adobe Illustrator 16.0.0, SVG Export Plug-In . SVG Version: 6.00 Build 0)  -->
<!DOCTYPE svg PUBLIC "-//W3C//DTD SVG 1.1//EN" "http://www.w3.org/Graphics/SVG/1.1/DTD/svg11.dtd">
<svg version="1.1" xmlns="http://www.w3.org/2000/svg" xmlns:xlink="http://www.w3.org/1999/xlink" x="0px" y="0px"
	 width="48.921px" height="67.752px" viewBox="0 0 48.921 67.752" enable-background="new 0 0 48.921 67.752" xml:space="preserve">
<g id="Layer_1">
</g>
<g id="Isolation_Mode">
	<g>
		<path fill="#69848A" d="M32.124,24.472l-6.781,6.31L19.05,18.089l3.256-7.3c0.824-1.463,2.169-1.466,2.993,0L32.124,24.472z"/>
		<polygon fill="#627075" points="25.343,30.781 0,54.356 19.05,18.089 		"/>
		<path fill="#5F8F97" d="M39.541,14.826c1.212-1.165,2.465-0.768,2.783,0.883l6.597,38.332L27.055,67.146
			c-0.766,0.423-2.792,0.606-2.792,0.606s-1.85-0.222-2.555-0.612L0,54.355L39.541,14.826z"/>
		<path fill="#69848A" d="M19.05,18.089L0,54.356L8.485,1.35c0.313-1.651,1.252-1.81,2.091-0.353L19.05,18.089z"/>
	</g>
</g>
</svg>
