<?xml version="1.0" encoding="utf-8"?>
<!-- Generator: Adobe Illustrator 16.0.0, SVG Export Plug-In . SVG Version: 6.00 Build 0)  -->
<!DOCTYPE svg PUBLIC "-//W3C//DTD SVG 1.1//EN" "http://www.w3.org/Graphics/SVG/1.1/DTD/svg11.dtd">
<svg version="1.1" xmlns="http://www.w3.org/2000/svg" xmlns:xlink="http://www.w3.org/1999/xlink" x="0px" y="0px"
	 width="103.728px" height="68.624px" viewBox="0 0 103.728 68.624" enable-background="new 0 0 103.728 68.624"
	 xml:space="preserve">
<g id="Layer_1">
</g>
<g id="Isolation_Mode">
	<g>
		<g>
			<path fill="#5F8F97" d="M29.637,50.817L29.637,50.817l-0.827,2.936L29.637,50.817L29.637,50.817z"/>
			<path fill="#5F8F97" d="M33.899,57.193l-0.913-0.006L33.899,57.193z"/>
			<path fill="#5F8F97" d="M33.665,61.58L33.665,61.58l-5.47,0.019L33.665,61.58L33.665,61.58z"/>
			<path fill="#5F8F97" d="M34.812,57.199l-0.914-0.006L34.812,57.199z"/>
			<path fill="#5F8F97" d="M34.144,61.207l0.954-3.635L34.144,61.207L34.144,61.207L34.144,61.207z"/>
			<path fill="#5F8F97" d="M54.288,44.468l-1.776,8.348L54.288,44.468z"/>
			<path fill="#5F8F97" d="M49.725,44.468l-1.348,6.235L49.725,44.468L49.725,44.468z"/>
			<path fill="#5F8F97" d="M53.982,44.094h-3.795c-0.211,0-0.419,0.169-0.465,0.374l-1.349,6.235l-1.347,6.234
				c-0.045,0.207-0.254,0.376-0.465,0.376h-2.304h-0.382c-2.659,0-2.353-1.839-1.808-4.358c0.007-0.024,0.012-0.051,0.016-0.076
				l0.061-0.317c0.003-0.021,0.007-0.04,0.011-0.061l0.122-0.645l0.131-0.693c0.038-0.209,0.098-0.515,0.138-0.708l0.613-2.993
				l0.613-2.993c0.042-0.206-0.097-0.375-0.308-0.375h-3.896c-0.21,0-0.419,0.169-0.462,0.374l-0.838,3.976l-0.838,3.975
				c-0.001,0.001-0.002,0.004-0.002,0.005l-0.077,0.37c-0.965,4.406-0.71,8.607,4.536,8.739c0.085,0.002,0.151,0.003,0.151,0.003
				h8.232c0.211,0,0.419-0.169,0.464-0.374l1.775-8.346l1.775-8.348C54.331,44.263,54.195,44.094,53.982,44.094L53.982,44.094z"/>
			<path fill="#5F8F97" d="M69.128,57.355c0.21,0,0.349,0.169,0.307,0.377l-0.369,1.801"/>
			<path fill="#5F8F97" d="M68.698,61.336l0.367-1.802L68.698,61.336C68.697,61.336,68.698,61.336,68.698,61.336L68.698,61.336z"/>
			<path fill="#5F8F97" d="M68.236,61.715l0.002-0.001c-1.117,0.009-4.476,0.035-6.999,0.035
				C64.311,61.749,68.236,61.715,68.236,61.715L68.236,61.715z"/>
			<path fill="#5F8F97" d="M58.975,55.036c-0.002-0.197,0.223-0.538,0.433-0.538l-0.474-0.007
				C58.721,56.639,58.975,55.036,58.975,55.036L58.975,55.036z"/>
			<path fill="#5F8F97" d="M61.587,61.749c-0.025,0-0.051,0-0.074,0C61.536,61.749,61.562,61.749,61.587,61.749z"/>
			<path fill="#5F8F97" d="M69.128,57.355c0.21,0,0.349,0.169,0.307,0.377l-0.369,1.801l-0.06,0.294"/>
			<path fill="#5F8F97" d="M63.383,61.743h-0.016H63.383z"/>
			<path fill="#5F8F97" d="M62.451,61.748h-0.055H62.451z"/>
			<path fill="#5F8F97" d="M62.167,61.748c-0.03,0-0.061,0-0.09,0.001C62.106,61.748,62.137,61.748,62.167,61.748z"/>
			<path fill="#5F8F97" d="M61.879,61.749h-0.081H61.879z"/>
			<path fill="#5F8F97" d="M62.396,61.748c-0.077,0-0.155,0-0.229,0C62.243,61.748,62.32,61.748,62.396,61.748z"/>
			<path fill="#5F8F97" d="M63.367,61.743c-0.306,0.001-0.612,0.002-0.914,0.005C62.755,61.745,63.062,61.744,63.367,61.743z"/>
			<path fill="#5F8F97" d="M68.239,61.714L68.239,61.714c-0.819,0.007-2.843,0.022-4.858,0.029
				C65.396,61.736,67.42,61.722,68.239,61.714z"/>
			<path fill="#5F8F97" d="M68.698,61.337l0.309-1.51L68.698,61.337L68.698,61.337L68.698,61.337z"/>
			<path fill="#5F8F97" d="M62.077,61.749h-0.198H62.077z"/>
			<path fill="#5F8F97" d="M61.512,61.749H61.24H61.512z"/>
			<path fill="#5F8F97" d="M61.798,61.749h-0.212H61.798z"/>
			<path fill="#5F8F97" d="M6.266,55.081l0.59-2.615l-0.674,2.989l-0.647,3.044l0.566-2.668C6.146,55.624,6.219,55.287,6.266,55.081
				L6.266,55.081z"/>
			<path fill="#5F8F97" d="M13.324,44.049h-4.17c-0.211,0-0.42,0.169-0.469,0.374l-0.395,1.744l-0.396,1.745
				c-0.044,0.207,0.089,0.375,0.3,0.375h4.201c0.21,0,0.421-0.169,0.466-0.376l0.382-1.744l0.382-1.742v-0.002
				C13.671,44.218,13.534,44.049,13.324,44.049L13.324,44.049z"/>
			<path fill="#5F8F97" d="M12.416,49.854L12.416,49.854l-1.223,5.656L12.416,49.854z"/>
			<path fill="#5F8F97" d="M7.446,49.854l-0.591,2.612L7.446,49.854z"/>
			<path fill="#5F8F97" d="M12.115,49.478H7.914c-0.211,0-0.421,0.17-0.468,0.376l-0.591,2.613l-0.59,2.614
				c-0.047,0.206-0.12,0.543-0.165,0.749l-0.566,2.669l-0.566,2.668c-0.044,0.205-0.135,0.539-0.202,0.738
				c0,0-0.785,2.336-2.104,2.31c-0.057-0.001-0.111-0.001-0.166-0.004c-0.638-0.011-1.141-0.021-1.141-0.021H1.354
				c-0.212-0.003-0.422,0.161-0.472,0.367l-0.436,1.832l-0.437,1.83c-0.048,0.204,0.084,0.375,0.293,0.377
				c0.749,0.009,2.426,0.028,3.44,0.028c3.296,0,5.033-1.826,6.147-7.082l1.303-6.031l1.223-5.657
				C12.462,49.647,12.325,49.478,12.115,49.478L12.115,49.478z"/>
			<path fill="#5F8F97" d="M71.807,61.535c-0.211,0-0.349-0.169-0.305-0.376l3.162-14.806"/>
			<path fill="#5F8F97" d="M76.198,61.159l1.279-6.319L76.198,61.159z"/>
			<path fill="#5F8F97" d="M71.549,61.347c-0.026-0.102-0.012-0.355,0.034-0.562l1.499-7.028l-1.58,7.404
				c-0.044,0.205,0.094,0.374,0.305,0.374h0.383C71.979,61.535,71.575,61.45,71.549,61.347L71.549,61.347z"/>
			<path fill="#5F8F97" d="M75.949,61.45c-0.116,0.047-0.382,0.085-0.592,0.085h0.383c0.211,0,0.418-0.169,0.46-0.376l0.075-0.376
				C76.233,60.99,76.063,61.404,75.949,61.45L75.949,61.45z"/>
			<path fill="#5F8F97" d="M76.839,57.999l0.565-2.788c-0.002,0.001-0.002,0.004-0.002,0.004L76.839,57.999L76.839,57.999z"/>
			<path fill="#5F8F97" d="M89.311,47.346l0.175,0.719c0.048,0.207-0.086,0.374-0.295,0.374"/>
			<path fill="#5F8F97" d="M76.275,60.785L76.838,58L76.275,60.785z"/>
			<path fill="#5F8F97" d="M89.138,46.608l0.172,0.737L89.138,46.608z"/>
			<path fill="#5F8F97" d="M77.402,55.211c0.042-0.207,0.112-0.542,0.156-0.746l0.602-2.823l-0.683,3.198L77.402,55.211
				L77.402,55.211z"/>
			<path fill="#5F8F97" d="M74.715,46.11c-0.041,0.2-0.096,0.451-0.131,0.618l-1.5,7.027l1.58-7.402L74.715,46.11L74.715,46.11z"/>
			<path fill="#5F8F97" d="M89.484,48.064l-0.175-0.719l-0.172-0.737l-0.089-0.373c-0.34-1.324-1.342-2.09-3.518-2.09l-3.387-0.005
				l-3.119-0.003h-0.267h-3.242c-0.211,0-0.419,0.168-0.463,0.375l0,0l-0.156,0.731l-0.183,0.868l-0.051,0.242l-1.58,7.402
				l-1.501,7.029c-0.045,0.205-0.06,0.459-0.034,0.562c0.027,0.103,0.431,0.188,0.643,0.188h3.164c0.212,0,0.478-0.038,0.594-0.085
				c0.113-0.046,0.283-0.46,0.326-0.665L76.838,58l0.564-2.784c0,0,0-0.003,0-0.005l0.075-0.37l0.683-3.199l0.604-2.824
				c0.044-0.205,0.252-0.373,0.463-0.374l9.963-0.005C89.399,48.438,89.532,48.271,89.484,48.064L89.484,48.064z"/>
			<path fill="#5F8F97" d="M102.309,41.56c-0.21,0.002-0.554,0.003-0.767,0.003h-3.188c-0.21,0-0.48,0.143-0.6,0.316L90.701,52.21
				c-0.119,0.175-0.254,0.148-0.301-0.058l-0.52-2.274c-0.047-0.206-0.258-0.374-0.468-0.374H84.88
				c-0.211,0-0.336,0.166-0.278,0.368l2.031,7.115c0.058,0.203,0.063,0.536,0.01,0.74l-0.885,3.443
				c-0.053,0.206,0.077,0.373,0.288,0.373h4.479c0.21,0,0.426-0.167,0.479-0.373l0.885-3.443c0.053-0.204,0.198-0.509,0.326-0.678
				l11.448-15.194c0.126-0.168,0.058-0.305-0.153-0.304L102.309,41.56L102.309,41.56z"/>
			<path fill="#5F8F97" d="M66.295,50.473v-0.006c-0.027,0.229-0.237,0.397-0.448,0.397H60.1c-0.199,0-0.301-0.136-0.271-0.302
				c0.004-0.005,0.004-0.01,0.007-0.014c0,0-0.003,0-0.003,0.002c0-0.007,0-0.013,0.002-0.021c0,0,0.01-0.04,0.026-0.097
				c0.549-1.46,1.667-2.418,3.768-2.418C65.995,48.017,66.456,49.173,66.295,50.473L66.295,50.473z M64.609,43.839
				c-7.378,0-9.126,4.477-10.106,8.997c-0.981,4.605-0.896,8.913,6.737,8.913h0.271c0.024,0,0.049,0,0.072,0h0.214h0.078h0.2
				c0.03-0.001,0.061-0.001,0.09-0.001c0.077,0,0.154,0,0.23,0h0.055c0.302-0.003,0.607-0.004,0.916-0.005h0.016
				c2.014-0.007,4.037-0.022,4.856-0.029c0.209-0.002,0.413-0.172,0.456-0.376l0.311-1.51l0.06-0.295l0.368-1.801
				c0.042-0.208-0.096-0.377-0.307-0.377h-6.863c-2.729,0-3.54-0.725-3.241-2.857h10.972l-0.001,0.001
				c0.002,0,0.005-0.001,0.007-0.001c0.174-0.004,0.336-0.123,0.399-0.283c0.012-0.03,0.022-0.062,0.027-0.095l-0.003,0.001
				c1.63-6.145,1.162-10.282-5.816-10.282H64.609z"/>
			<path fill="#5F8F97" d="M29.741,50.448l-0.104,0.368v0.001l-0.827,2.936l-0.829,2.935c-0.057,0.205-0.275,0.369-0.486,0.369
				h-4.385c-3.326,0-4.136-2.601-3.326-6.438c0.81-3.924,2.397-6.363,5.671-6.611C29.927,43.671,30.822,46.816,29.741,50.448
				L29.741,50.448z M32.749,56.832c0,0,2.067-5.021,2.537-7.92c0.64-3.881-1.304-9.509-8.809-9.509
				c-7.464,0-10.703,5.373-11.94,11.216c-1.236,5.883,0.385,11.044,7.804,11.002l5.854-0.022l5.47-0.019
				c0.212-0.003,0.427-0.17,0.481-0.373l0.952-3.636c0.054-0.204-0.076-0.372-0.286-0.372l-0.913-0.006l-0.914-0.006
				c-0.179-0.002-0.28-0.117-0.259-0.271C32.729,56.889,32.735,56.86,32.749,56.832L32.749,56.832z"/>
			<path fill="#5F8F97" d="M69.691,53.472c0,0.139-0.112,0.251-0.251,0.251c-0.14,0-0.252-0.112-0.252-0.251
				s0.112-0.251,0.252-0.251C69.579,53.221,69.691,53.333,69.691,53.472z"/>
		</g>
		<g>
			<path fill="#5F8F97" d="M38.559,8.797c-3.441,4.947-3.014,11.384-0.383,16.641c0.062,0.126,0.127,0.251,0.191,0.375
				c0.042,0.078,0.081,0.16,0.125,0.237c0.022,0.046,0.051,0.092,0.075,0.135c0.045,0.085,0.091,0.165,0.137,0.245
				c0.083,0.146,0.166,0.288,0.251,0.432c0.049,0.078,0.096,0.156,0.145,0.235c0.094,0.152,0.191,0.305,0.29,0.457
				c0.041,0.063,0.082,0.128,0.124,0.189c0.138,0.204,0.278,0.409,0.423,0.609c0.004,0.006,0.008,0.011,0.011,0.017
				c0.024,0.031,0.049,0.063,0.072,0.095c0.124,0.174,0.254,0.345,0.384,0.513c0.048,0.061,0.097,0.122,0.145,0.184
				c0.117,0.147,0.235,0.293,0.355,0.438c0.046,0.053,0.091,0.106,0.136,0.161c0.162,0.189,0.327,0.379,0.497,0.564
				c0.002,0.004,0.005,0.009,0.008,0.011c0.008,0.007,0.014,0.013,0.021,0.021c0.163,0.18,0.331,0.355,0.503,0.531
				c0.052,0.055,0.106,0.109,0.16,0.162c0.133,0.134,0.268,0.264,0.401,0.396c0.056,0.051,0.109,0.104,0.165,0.155
				c0.182,0.171,0.363,0.338,0.55,0.501c0.004,0.003,0.006,0.006,0.01,0.007c0.031,0.028,0.063,0.056,0.095,0.081
				c0.165,0.143,0.333,0.284,0.5,0.423c0.069,0.056,0.139,0.111,0.208,0.166c0.139,0.109,0.275,0.219,0.417,0.324
				c0.073,0.059,0.148,0.115,0.223,0.172c0.154,0.112,0.311,0.225,0.467,0.333c0.058,0.044,0.112,0.082,0.17,0.122
				c0.017,0.011,0.031,0.022,0.047,0.034c0.15,0.102,0.302,0.202,0.454,0.3c0.066,0.044,0.132,0.088,0.197,0.132
				c0.234,0.147,0.471,0.294,0.711,0.436c0.064,0.036,0.131,0.073,0.197,0.11c0.177,0.102,0.353,0.202,0.533,0.3
				c0.097,0.052,0.197,0.102,0.295,0.15c0.127,0.067,0.253,0.136,0.383,0.199c0.029,0.015,0.059,0.029,0.087,0.043
				c0.054,0.024,0.104,0.05,0.157,0.076c0.199,0.095,0.401,0.189,0.605,0.28c0.043,0.02,0.086,0.037,0.129,0.057
				c0.232,0.103,0.468,0.2,0.705,0.293c0.058,0.024,0.115,0.045,0.172,0.069c0.221,0.084,0.443,0.168,0.667,0.246
				c0.028,0.009,0.056,0.02,0.084,0.028c0.246,0.086,0.493,0.166,0.743,0.243c0.061,0.017,0.118,0.036,0.179,0.055
				c0.255,0.077,0.506,0.167,0.769,0.217c16.646,3.034,21.481-10.004,21.481-10.004c-4.062,5.29-11.271,6.687-18.1,5.131
				c-0.259-0.057-0.51-0.137-0.762-0.212c-0.065-0.021-0.128-0.039-0.192-0.058c-0.246-0.076-0.489-0.156-0.733-0.239
				c-0.032-0.012-0.065-0.024-0.1-0.037c-0.218-0.077-0.434-0.157-0.648-0.239c-0.06-0.024-0.12-0.047-0.182-0.071
				c-0.234-0.094-0.468-0.19-0.698-0.291c-0.049-0.02-0.094-0.041-0.141-0.063c-0.197-0.089-0.393-0.18-0.589-0.273
				c-0.057-0.027-0.112-0.055-0.171-0.082c-0.152-0.073-0.305-0.153-0.455-0.232c-0.102-0.053-0.205-0.103-0.304-0.159
				c-0.186-0.098-0.367-0.201-0.548-0.307c-0.06-0.034-0.122-0.066-0.184-0.102c-0.24-0.142-0.478-0.289-0.712-0.437
				c-0.064-0.042-0.128-0.085-0.191-0.127c-0.171-0.111-0.34-0.223-0.507-0.337c-0.056-0.038-0.108-0.079-0.164-0.116
				c-0.16-0.113-0.319-0.229-0.478-0.345c-0.071-0.053-0.143-0.108-0.212-0.16c-0.145-0.111-0.29-0.224-0.433-0.339
				c-0.064-0.051-0.128-0.103-0.191-0.154c-0.182-0.149-0.362-0.298-0.538-0.451c-0.019-0.018-0.039-0.033-0.06-0.051
				c-0.19-0.169-0.38-0.34-0.565-0.515c-0.054-0.052-0.106-0.101-0.16-0.152c-0.137-0.132-0.272-0.264-0.406-0.398
				c-0.052-0.055-0.106-0.106-0.158-0.159c-0.17-0.174-0.337-0.35-0.499-0.527c-0.009-0.01-0.017-0.017-0.024-0.026
				c-0.173-0.188-0.341-0.382-0.506-0.576c-0.045-0.054-0.088-0.105-0.133-0.157c-0.124-0.148-0.246-0.299-0.363-0.45
				c-0.045-0.054-0.09-0.109-0.134-0.166c-0.144-0.186-0.284-0.372-0.421-0.561c-3.792-5.172-5.154-12.306-2.123-18.165"/>
			<path fill="#5F8F97" d="M49.244,4.628c-2.489,3.583-2.354,8.379-0.412,12.167c0.326,0.636,0.691,1.252,1.102,1.838
				c0.372,0.535,0.785,1.171,1.281,1.601c0.179,0.196,0.367,0.39,0.559,0.579c0.048,0.049,0.098,0.097,0.146,0.146
				c0.187,0.181,0.375,0.357,0.571,0.53c0.008,0.007,0.015,0.014,0.023,0.021c0.003,0.002,0.004,0.002,0.005,0.004
				c0.217,0.19,0.439,0.373,0.666,0.552c0.051,0.039,0.102,0.08,0.152,0.118c0.226,0.175,0.459,0.347,0.697,0.509
				c0.007,0.006,0.014,0.01,0.02,0.016c0.105,0.073,0.213,0.14,0.318,0.21c0.052,0.033,0.099,0.068,0.15,0.099
				c0.17,0.109,0.342,0.215,0.518,0.316c0.023,0.017,0.049,0.028,0.071,0.043c0.152,0.087,0.305,0.173,0.459,0.255
				c0.052,0.031,0.106,0.058,0.161,0.086c0.105,0.055,0.212,0.111,0.32,0.165c0.016,0.007,0.032,0.015,0.047,0.021
				c0.22,0.108,0.44,0.213,0.667,0.312c0.049,0.021,0.099,0.04,0.147,0.061c0.181,0.077,0.363,0.151,0.545,0.222
				c0.079,0.029,0.157,0.058,0.236,0.086c0.164,0.063,0.332,0.119,0.5,0.175c0.077,0.024,0.151,0.05,0.229,0.072
				c0.238,0.075,0.475,0.168,0.725,0.21c12.852,2.13,15.82-7.767,15.82-7.767c-2.676,3.852-7.854,5.69-13.382,4.255
				c-0.245-0.064-0.488-0.135-0.728-0.21c-0.074-0.022-0.146-0.046-0.22-0.071c-0.17-0.056-0.341-0.113-0.508-0.175
				c-0.078-0.027-0.156-0.057-0.231-0.085c-0.185-0.07-0.367-0.145-0.548-0.222c-0.05-0.021-0.1-0.041-0.147-0.063
				c-0.227-0.098-0.451-0.203-0.671-0.311c-0.114-0.056-0.225-0.115-0.337-0.171c-0.064-0.034-0.129-0.066-0.193-0.101
				c-0.145-0.078-0.286-0.158-0.426-0.239c-0.034-0.02-0.068-0.037-0.102-0.059c-0.176-0.101-0.347-0.205-0.516-0.314
				c-0.053-0.032-0.103-0.07-0.156-0.104c-0.111-0.071-0.223-0.145-0.332-0.22c-0.237-0.162-0.468-0.335-0.695-0.508
				c-0.052-0.041-0.105-0.081-0.156-0.123c-2.42-1.91-4.338-4.521-5.248-7.48c-0.956-3.07-0.752-6.517,0.904-9.313"/>
			<path fill="#5F8F97" d="M58.23,1.515c-1.467,2.159-1.611,4.842-0.594,7.227c1.074,2.531,3.274,4.519,5.844,5.46
				c0.106,0.038,0.211,0.073,0.317,0.111c0.048,0.015,0.095,0.03,0.142,0.044c0.15,0.048,0.302,0.103,0.458,0.133
				c7.097,1.371,9.022-3.644,9.535-4.38c-1.687,2.427-4.521,3.01-7.998,2.166c-0.274-0.067-0.576-0.166-0.841-0.26
				c-0.34-0.12-0.675-0.259-0.999-0.414c-0.617-0.298-1.206-0.656-1.751-1.068C59.232,8.172,57.299,3.667,59.329,0"/>
		</g>
	</g>
</g>
</svg>
